<svg xmlns="http://www.w3.org/2000/svg" data-name="Layer 1" viewBox="0 0 48 60" x="0px" y="0px"><title>drug solid icons</title><path d="M47.85,46.28A26.6,26.6,0,0,0,28.64,31.79V19.85h9.53a1.27,1.27,0,0,0,1.07-1.4V12a1.27,1.27,0,0,0-1.07-1.4H28.64V1.4A1.4,1.4,0,0,0,27.24,0H20.76a1.4,1.4,0,0,0-1.4,1.4v9.16H9.83A1.27,1.27,0,0,0,8.76,12v6.49a1.27,1.27,0,0,0,1.07,1.4h9.53V31.79A26.6,26.6,0,0,0,.15,46.28,1.21,1.21,0,0,0,1.25,48h45.5A1.21,1.21,0,0,0,47.85,46.28Z"/><text x="0" y="63" fill="#000000" font-size="5px" font-weight="bold" font-family="'Helvetica Neue', Helvetica, Arial-Unicode, Arial, Sans-serif">Created by tulpahn</text><text x="0" y="68" fill="#000000" font-size="5px" font-weight="bold" font-family="'Helvetica Neue', Helvetica, Arial-Unicode, Arial, Sans-serif">from the Noun Project</text></svg>