<svg xmlns="http://www.w3.org/2000/svg" data-name="Layer 1" viewBox="0 0 48 60" x="0px" y="0px"><title>halloween solid icons</title><path d="M27,16.87A2.19,2.19,0,0,0,28.53,16a3.16,3.16,0,0,0,.7-1.88,1.44,1.44,0,0,0-.87-1.46,3.26,3.26,0,0,0-2.29.14,4.7,4.7,0,0,0-2,1.34,1.13,1.13,0,0,0-.18,1.41,3,3,0,0,0,1.38,1A3.67,3.67,0,0,0,27,16.87Z"/><path d="M19.61,12.8a3.23,3.23,0,0,0-2.28-.14,1.44,1.44,0,0,0-.87,1.46A3.22,3.22,0,0,0,17.15,16a2.21,2.21,0,0,0,1.49.87,3.71,3.71,0,0,0,1.78-.33,3,3,0,0,0,1.38-1,1.13,1.13,0,0,0-.18-1.41A4.68,4.68,0,0,0,19.61,12.8Z"/><path d="M27.11,38.37v9.45a37.69,37.69,0,0,0,5.8-.89,26.75,26.75,0,0,0,6.41-2.37,14.17,14.17,0,0,0,4.62-3.67,1,1,0,0,0,.17-.36,2.8,2.8,0,0,0,.06-.28A27,27,0,0,0,32.65,38,44.68,44.68,0,0,0,27.11,38.37Z"/><path d="M25.81,29.62a1.28,1.28,0,0,1,.61.16c.63-.06,1.91-.16,3.55-.16,4.16,0,10.26.65,14.18,3.93a14.53,14.53,0,0,0-2.37-5.8c-1.39-1.87-3.53-2.17-5.44-2.3l-.49,0A4.3,4.3,0,0,0,37.15,22c-.27-1.54-1.91-2.12-2.7-3.34s-.79-3.09-.79-4.45C33.66,6.5,28.85.24,22.84,0,16.83.24,12,6.5,12,14.19c0,1.36,0,3.17-.79,4.45S8.79,20.44,8.53,22a4.27,4.27,0,0,0,1.3,3.45l-.49,0c-1.91.13-4,.43-5.44,2.3a14.83,14.83,0,0,0-2.43,6.11,15.59,15.59,0,0,0,.1,6.67,1,1,0,0,0,.17.36,13.75,13.75,0,0,0,4.62,3.67,26.75,26.75,0,0,0,6.41,2.37A42.27,42.27,0,0,0,22.61,48l.23,0,.23,0h0V31.19a1.42,1.42,0,0,1,1.3-1.57Zm-1.62-8.15V24H21.51V21.47A.48.48,0,0,0,21,21h0a.45.45,0,0,0-.47.46V24H18.61c-.43,0-.79-.24-.79-.56V20.79a7.22,7.22,0,0,1-3.12-5.86c0-4.11,3.65-8.83,8.14-8.83S31,10.82,31,14.93a7.28,7.28,0,0,1-3.11,5.85v2.66c0,.32-.35.56-.78.56H25.16V21.47a.48.48,0,0,0-.49-.46h0A.46.46,0,0,0,24.19,21.47Z"/><path d="M46.84,40.66c-1.41-12.3-20.73-9.84-20.73-9.84s-.14-.2-.3-.2h-1.4c-.16,0-.3.26-.3.57V48h2V37.5C40.51,35.39,46.84,40.66,46.84,40.66Z"/><text x="0" y="63" fill="#000000" font-size="5px" font-weight="bold" font-family="'Helvetica Neue', Helvetica, Arial-Unicode, Arial, Sans-serif">Created by tulpahn</text><text x="0" y="68" fill="#000000" font-size="5px" font-weight="bold" font-family="'Helvetica Neue', Helvetica, Arial-Unicode, Arial, Sans-serif">from the Noun Project</text></svg>